HIERARCHY
ROOT Hips
{
	OFFSET 0.000000 0.000000 0.000000
	CHANNELS 6 Xposition Yposition Zposition Xrotation Yrotation Zrotation
	JOINT LeftUpLeg_virtual
	{
		OFFSET 0.000000 0.000000 0.000000
		CHANNELS 3 Xrotation Yrotation Zrotation
		JOINT LeftUpLeg
		{
			OFFSET 15.427100 -6.655098 0.678600
			CHANNELS 3 Xrotation Yrotation Zrotation
			JOINT LeftLeg
			{
				OFFSET 4.081073 -39.591068 13.024000
				CHANNELS 3 Xrotation Yrotation Zrotation
				JOINT LeftFoot
				{
					OFFSET -4.081074 -37.707932 -15.979700
					CHANNELS 3 Xrotation Yrotation Zrotation
					JOINT LeftToeBase
					{
						OFFSET 5.346399 -15.068900 20.645000
						CHANNELS 3 Xrotation Yrotation Zrotation
						JOINT LeftToe_End
						{
							OFFSET 2.754700 0.931300 11.300900
							CHANNELS 3 Xrotation Yrotation Zrotation
							End Site
							{
								OFFSET 0 0 0
							}
						}
					}
				}
			}
		}
	}
	JOINT RightUpLeg_virtual
	{
		OFFSET 0.000000 0.000000 0.000000
		CHANNELS 3 Xrotation Yrotation Zrotation
		JOINT RightUpLeg
		{
			OFFSET -15.569500 -6.655098 0.678600
			CHANNELS 3 Xrotation Yrotation Zrotation
			JOINT RightLeg
			{
				OFFSET -4.081825 -39.591045 13.023800
				CHANNELS 3 Xrotation Yrotation Zrotation
				JOINT RightFoot
				{
					OFFSET 4.081824 -37.707954 -15.979600
					CHANNELS 3 Xrotation Yrotation Zrotation
					JOINT RightToeBase
					{
						OFFSET -5.346400 -15.068900 20.645000
						CHANNELS 3 Xrotation Yrotation Zrotation
						JOINT RightToe_End
						{
							OFFSET -2.754700 0.931300 11.300900
							CHANNELS 3 Xrotation Yrotation Zrotation
							End Site
							{
								OFFSET 0 0 0
							}
						}
					}
				}
			}
		}
	}
	JOINT Spine_virtual
	{
		OFFSET 0.000000 0.000000 0.000000
		CHANNELS 3 Xrotation Yrotation Zrotation
		JOINT Spine
		{
			OFFSET -0.279200 12.230698 -2.892100
			CHANNELS 3 Xrotation Yrotation Zrotation
			JOINT Spine1
			{
				OFFSET -0.232667 10.192268 -1.242267
				CHANNELS 3 Xrotation Yrotation Zrotation
				JOINT Spine1_split
				{
					OFFSET -0.232667 10.192268 -1.242267
					CHANNELS 3 Xrotation Yrotation Zrotation
					JOINT Spine2
					{
						OFFSET -0.232667 10.192268 -1.242267
						CHANNELS 3 Xrotation Yrotation Zrotation
						JOINT Neck_virtual
						{
							OFFSET 0.000000 0.000000 0.000000
							CHANNELS 3 Xrotation Yrotation Zrotation
							JOINT Neck
							{
								OFFSET -0.418800 17.814194 8.416900
								CHANNELS 3 Xrotation Yrotation Zrotation
								JOINT Head
								{
									OFFSET 0.000000 7.031097 3.806800
									CHANNELS 3 Xrotation Yrotation Zrotation
									JOINT HeadTop_End
									{
										OFFSET 0.000000 24.646606 12.978600
										CHANNELS 3 Xrotation Yrotation Zrotation
										End Site
										{
											OFFSET 0 0 0
										}
									}
								}
							}
						}
						JOINT LeftShoulder_virtual
						{
							OFFSET 0.000000 0.000000 0.000000
							CHANNELS 3 Xrotation Yrotation Zrotation
							JOINT LeftShoulder
							{
								OFFSET 8.476499 7.247704 -3.868750
								CHANNELS 3 Xrotation Yrotation Zrotation
								JOINT LeftShoulder_split
								{
									OFFSET 8.476499 7.247704 -3.868750
									CHANNELS 3 Xrotation Yrotation Zrotation
									JOINT LeftArm
									{
										OFFSET 9.308998 -2.777710 0.208600
										CHANNELS 3 Xrotation Yrotation Zrotation
										JOINT LeftForeArm
										{
											OFFSET 29.972298 0.000000 0.000000
											CHANNELS 3 Xrotation Yrotation Zrotation
											JOINT LeftHand
											{
												OFFSET 26.026505 0.000000 0.000000
												CHANNELS 3 Xrotation Yrotation Zrotation
												End Site
												{
													OFFSET 0 0 0
												}
											}
										}
									}
								}
							}
						}
						JOINT RightShoulder_virtual
						{
							OFFSET 0.000000 0.000000 0.000000
							CHANNELS 3 Xrotation Yrotation Zrotation
							JOINT RightShoulder
							{
								OFFSET -7.570500 7.247704 -3.868750
								CHANNELS 3 Xrotation Yrotation Zrotation
								JOINT RightShoulder_split
								{
									OFFSET -7.570500 7.247704 -3.868750
									CHANNELS 3 Xrotation Yrotation Zrotation
									JOINT RightArm
									{
										OFFSET -9.308998 -2.777710 0.208500
										CHANNELS 3 Xrotation Yrotation Zrotation
										JOINT RightForeArm
										{
											OFFSET -29.972300 0.000000 0.000000
											CHANNELS 3 Xrotation Yrotation Zrotation
											JOINT RightHand
											{
												OFFSET -26.026505 0.000000 0.000000
												CHANNELS 3 Xrotation Yrotation Zrotation
												End Site
												{
													OFFSET 0 0 0
												}
											}
										}
									}
								}
							}
						}
					}
				}
			}
		}
	}
}
MOTION
Frames: 10
Frame Time: 0.03333333
67.426788 92.564995 162.157578 0.000000 0.000000 0.000000 -3.451326 42.786935 9.624630 -17.649750 11.967571 -17.638327 32.738234 -7.971491 1.191216 14.274638 -1.807118 15.160751 -27.078340 0.074199 3.669727 0.000000 0.000000 0.000000 -3.451326 42.786935 9.624630 -18.584154 15.390487 -2.843300 53.763045 -9.107499 -1.484358 24.979315 -5.966788 -3.817841 -38.368902 -2.940338 15.762340 0.000000 0.000000 0.000000 -3.451326 42.786935 9.624630 2.620349 -1.062635 -7.764551 -1.325620 -1.163661 0.817525 0.000000 0.000000 0.000000 0.000000 0.000000 0.000000 -1.438975 -1.086679 0.916038 -7.118965 3.300079 1.481927 3.009344 7.256440 -2.336363 0.000000 0.000000 0.000000 -1.438975 -1.086679 0.916038 1.278785 8.282233 -5.884514 0.000000 0.000000 0.000000 5.487386 -5.716216 -69.262578 10.995039 -23.144455 4.299489 0.000000 0.000000 0.000000 -1.438975 -1.086679 0.916038 0.653105 6.246606 2.354861 0.000000 0.000000 0.000000 1.709289 -0.054541 76.942081 10.204122 11.314858 -3.125138 0.000000 0.000000 0.000000 
69.471481 93.440392 165.149033 0.000000 0.000000 0.000000 -2.701314 45.120926 7.720439 -15.594299 10.888661 -16.299073 32.358650 -9.539126 1.088090 12.263664 -1.821818 15.713885 -26.843706 0.128799 3.236152 0.000000 0.000000 0.000000 -2.701314 45.120926 7.720439 -24.207953 17.327910 -0.977087 51.862344 -8.994809 -1.585928 22.555738 -6.547926 -1.207018 -32.779768 -0.955767 11.679343 0.000000 0.000000 0.000000 -2.701314 45.120926 7.720439 3.266270 -1.523486 -7.234246 -1.777615 -1.610047 1.334798 0.000000 0.000000 0.000000 0.000000 0.000000 0.000000 -1.884349 -1.504942 1.444946 -6.959354 2.850368 2.091293 3.091849 7.132217 -2.654660 0.000000 0.000000 0.000000 -1.884349 -1.504942 1.444946 1.160517 7.595429 -5.207532 0.000000 0.000000 0.000000 4.128660 -7.551712 -69.228967 10.365313 -23.115711 4.027335 0.000000 0.000000 0.000000 -1.884349 -1.504942 1.444946 0.551899 5.166420 2.977071 0.000000 0.000000 0.000000 2.826261 -0.847812 76.289894 9.960798 11.547388 -3.248022 0.000000 0.000000 0.000000 
71.603485 94.743942 167.938492 0.000000 0.000000 0.000000 -2.273200 47.296932 6.113637 -12.717916 9.492754 -15.136872 30.580622 -11.582834 0.889705 11.351797 -1.980188 16.390967 -27.390662 0.093054 3.401332 0.000000 0.000000 0.000000 -2.273200 47.296932 6.113637 -26.828949 18.846585 -0.441092 46.094686 -9.276162 -1.304468 19.678499 -6.902938 1.209232 -29.775523 -0.008479 4.935151 0.000000 0.000000 0.000000 -2.273200 47.296932 6.113637 3.739447 -1.823475 -6.453360 -1.917041 -1.870127 1.566975 0.000000 0.000000 0.000000 0.000000 0.000000 0.000000 -2.016496 -1.745487 1.688299 -7.136430 2.301325 2.835103 3.015807 6.976175 -2.961341 0.000000 0.000000 0.000000 -2.016496 -1.745487 1.688299 1.054432 6.658284 -4.553236 0.000000 0.000000 0.000000 2.584424 -8.729322 -69.170746 10.931303 -23.345692 4.316947 0.000000 0.000000 0.000000 -2.016496 -1.745487 1.688299 0.468852 4.296581 3.807815 0.000000 0.000000 0.000000 3.712519 -1.736369 75.758075 10.237052 11.570052 -3.600592 0.000000 0.000000 0.000000 
73.895546 96.109993 170.641891 0.000000 0.000000 0.000000 -2.171259 49.582720 5.132411 -9.110815 8.371210 -14.031899 27.853921 -13.489067 0.480541 10.675696 -1.875418 16.876291 -27.385121 0.133084 2.866592 0.000000 0.000000 0.000000 -2.171259 49.582720 5.132411 -28.663128 18.995046 -0.404785 38.417908 -8.395191 -1.136529 20.935155 -7.683163 0.106762 -27.469014 0.237155 0.560760 0.000000 0.000000 0.000000 -2.171259 49.582720 5.132411 4.182340 -2.177019 -5.976365 -1.841601 -2.103296 1.635291 0.000000 0.000000 0.000000 0.000000 0.000000 0.000000 -1.933949 -1.969564 1.771419 -7.622171 1.684649 3.811167 2.836207 6.844593 -3.158514 0.000000 0.000000 0.000000 -1.933949 -1.969564 1.771419 0.962493 5.850582 -3.864038 0.000000 0.000000 0.000000 1.159746 -10.429466 -69.015360 13.345986 -23.809952 5.443322 0.000000 0.000000 0.000000 -1.933949 -1.969564 1.771419 0.359065 3.439811 5.059002 0.000000 0.000000 0.000000 4.090951 -2.510069 75.024219 10.948088 11.114796 -3.908170 0.000000 0.000000 0.000000 
76.206062 97.057930 173.225098 0.000000 0.000000 0.000000 -1.928010 52.162735 4.588188 -5.804035 7.747905 -13.625838 25.509621 -16.871768 0.196507 10.159618 -0.899687 17.576339 -27.525831 0.146906 2.556362 0.000000 0.000000 0.000000 -1.928010 52.162735 4.588188 -29.979254 16.421571 -1.466498 29.896442 -4.506847 -0.757872 25.026872 -7.651638 -0.415654 -26.783342 0.259719 -0.490301 0.000000 0.000000 0.000000 -1.928010 52.162735 4.588188 4.212592 -2.708804 -6.090052 -1.601960 -2.442341 1.680996 0.000000 0.000000 0.000000 0.000000 0.000000 0.000000 -1.686423 -2.306115 1.842771 -8.182128 1.064178 4.819834 2.447683 6.735296 -3.283135 0.000000 0.000000 0.000000 -1.686423 -2.306115 1.842771 0.798802 5.110248 -2.665813 0.000000 0.000000 0.000000 -0.241551 -11.466504 -69.424392 13.594646 -25.162326 5.868446 0.000000 0.000000 0.000000 -1.686423 -2.306115 1.842771 0.241624 2.984834 6.731860 0.000000 0.000000 0.000000 4.162160 -3.392875 73.997416 10.974911 10.423136 -4.051985 0.000000 0.000000 0.000000 
78.306320 97.570938 175.553040 0.000000 0.000000 0.000000 -1.145144 54.569096 4.182184 -2.891141 8.644421 -13.183119 23.447657 -19.459933 -0.025384 9.661122 -2.390282 18.605148 -27.593358 0.123510 2.894158 0.000000 0.000000 0.000000 -1.145144 54.569096 4.182184 -30.903047 8.912924 -3.872119 20.897300 -0.226588 -0.407945 30.098670 -5.139241 -0.833221 -26.619255 0.289106 -0.528951 0.000000 0.000000 0.000000 -1.145144 54.569096 4.182184 3.748521 -3.164735 -7.182822 -1.426298 -2.743827 1.960419 0.000000 0.000000 0.000000 0.000000 0.000000 0.000000 -1.500371 -2.599487 2.143598 -8.772390 0.553123 5.788278 2.458057 6.705015 -3.434209 0.000000 0.000000 0.000000 -1.500371 -2.599487 2.143598 0.650586 4.267492 -1.487386 0.000000 0.000000 0.000000 -1.376805 -11.892742 -70.021214 11.850937 -26.778494 5.400996 0.000000 0.000000 0.000000 -1.500371 -2.599487 2.143598 0.177659 2.363379 8.088309 0.000000 0.000000 0.000000 4.101393 -4.290230 73.255835 11.492368 9.887157 -4.437801 0.000000 0.000000 0.000000 
80.462341 97.760368 177.965286 0.000000 0.000000 0.000000 -0.905213 56.728211 4.474716 0.600816 11.528721 -13.078987 21.757610 -24.614602 -0.288089 9.261497 -3.012197 20.217112 -27.055327 0.172425 2.838565 0.000000 0.000000 0.000000 -0.905213 56.728211 4.474716 -32.384994 -4.350273 -6.503832 13.498781 4.434807 0.099744 34.098012 -1.622031 -2.481266 -26.448480 0.330849 -0.541842 0.000000 0.000000 0.000000 -0.905213 56.728211 4.474716 3.430129 -3.506160 -9.049829 -1.311478 -3.039442 2.602732 0.000000 0.000000 0.000000 0.000000 0.000000 0.000000 -1.363566 -2.863319 2.803703 -8.769672 0.317255 6.157226 2.055805 6.643299 -3.336290 0.000000 0.000000 0.000000 -1.363566 -2.863319 2.803703 0.632590 3.842245 -1.185569 0.000000 0.000000 0.000000 -2.142455 -12.306228 -70.194250 12.091752 -27.960465 5.736053 0.000000 0.000000 0.000000 -1.363566 -2.863319 2.803703 0.147918 2.246442 8.715384 0.000000 0.000000 0.000000 4.187380 -5.226778 73.022515 10.857060 9.587790 -4.599829 0.000000 0.000000 0.000000 
82.671089 97.505005 180.583984 0.000000 0.000000 0.000000 -0.927840 58.115887 5.072596 4.165582 15.407759 -12.887569 20.769323 -30.077394 -0.639150 8.521876 -3.610026 21.923177 -26.249593 0.261846 2.293192 0.000000 0.000000 0.000000 -0.927840 58.115887 5.072596 -32.746212 -4.901173 -8.139012 11.598581 2.207801 0.832005 31.984796 -1.422297 -1.504542 -26.255070 0.371601 -0.559542 0.000000 0.000000 0.000000 -0.927840 58.115887 5.072596 3.146995 -3.494351 -11.093749 -1.134890 -2.975600 3.181138 0.000000 0.000000 0.000000 0.000000 0.000000 0.000000 -1.177075 -2.778422 3.378054 -9.207219 -0.031268 6.467811 2.013834 6.403570 -3.011679 0.000000 0.000000 0.000000 -1.177075 -2.778422 3.378054 0.602033 3.296980 -0.736356 0.000000 0.000000 0.000000 -2.709509 -13.249269 -70.398405 11.968120 -28.499758 5.775781 0.000000 0.000000 0.000000 -1.177075 -2.778422 3.378054 0.118678 1.970336 9.386430 0.000000 0.000000 0.000000 4.290658 -6.060110 72.799872 10.354206 9.450868 -4.793433 0.000000 0.000000 0.000000 
85.395119 96.145447 183.727264 0.000000 0.000000 0.000000 -1.126096 59.492580 6.200696 7.254445 16.711180 -12.800602 21.591225 -32.988420 -0.652088 6.006351 -4.320591 23.237106 -26.341687 0.266711 2.196052 0.000000 0.000000 0.000000 -1.126096 59.492580 6.200696 -34.877330 -2.579472 -8.130732 16.076112 3.062400 -0.301282 34.842735 -1.692977 -2.080114 -26.309383 0.382381 -0.640616 0.000000 0.000000 0.000000 -1.126096 59.492580 6.200696 2.884830 -3.649692 -12.791319 -0.932894 -2.881300 3.301639 0.000000 0.000000 0.000000 0.000000 0.000000 0.000000 -0.969896 -2.692896 3.493745 -10.195277 -0.471133 6.992787 2.644042 6.197194 -2.861616 0.000000 0.000000 0.000000 -0.969896 -2.692896 3.493745 0.550041 3.056026 -0.227339 0.000000 0.000000 0.000000 -2.964930 -13.462027 -70.705886 12.197324 -29.022273 5.986862 0.000000 0.000000 0.000000 -0.969896 -2.692896 3.493745 0.050648 1.683155 10.513270 0.000000 0.000000 0.000000 4.145518 -6.425943 72.151892 10.422035 9.031323 -4.828659 0.000000 0.000000 0.000000 
88.537964 94.772888 187.072174 0.000000 0.000000 0.000000 -2.338257 60.500935 6.973818 9.749469 15.776265 -11.121071 23.459854 -32.214744 -0.126850 3.287560 -4.575592 23.325591 -30.718824 -0.047687 2.444092 0.000000 0.000000 0.000000 -2.338257 60.500935 6.973818 -37.007997 -0.523462 -7.434130 23.811986 2.901626 -0.292144 34.393537 -1.824588 -0.315062 -26.294010 0.389048 -0.730914 0.000000 0.000000 0.000000 -2.338257 60.500935 6.973818 3.054379 -3.760473 -12.625745 -0.735999 -2.803166 3.165950 0.000000 0.000000 0.000000 0.000000 0.000000 0.000000 -0.772419 -2.628723 3.354819 -10.763483 -0.606931 7.161099 3.218558 6.126027 -2.789385 0.000000 0.000000 0.000000 -0.772419 -2.628723 3.354819 0.578091 3.027175 -0.419051 0.000000 0.000000 0.000000 -2.452576 -13.801493 -70.692806 11.847649 -28.690739 5.751183 0.000000 0.000000 0.000000 -0.772419 -2.628723 3.354819 0.058093 1.415532 11.031766 0.000000 0.000000 0.000000 3.688738 -6.132987 71.804529 10.675927 8.245268 -4.571945 0.000000 0.000000 0.000000 
